<svg id="Capa_1" data-name="Capa 1" xmlns="http://www.w3.org/2000/svg" viewBox="0 0 1080 1080"><defs><style>.cls-1{fill:rgba(255,255,255,0.4);}</style></defs><path class="cls-1" d="M876.76,309.26a3.65,3.65,0,0,0-3.49.89,21.82,21.82,0,0,0-10.56-23L745.24,218.9c-10.4-6-28.31-8.45-39.93-5.37l-132.15,35a24.81,24.81,0,0,0-17.74,19.86c-4.44-9.27-13.4-17.59-22.65-20.21L399.13,210.29c-11.52-3.27-29.9-2.23-41,2.32l-131.76,54.1C215.12,271.34,205.52,285,205,297.16l-4.16,93.52c-.43,9.74,5.21,19.95,13.41,25.62a9.66,9.66,0,0,0-6.14,2.68c-3,3-3.58,7.82-1.72,13.68L252,576.49c-1.17.35-1.92,1.64-.88,10.29l8.42,70c1.41,11.77,6.94,30,12.33,40.51l39.44,77.4c3.46,6.78,4.82,8.17,5.87,8.17a1.71,1.71,0,0,0,.66-.15,1.48,1.48,0,0,0,1-1.47c5.29,6.66,13.76,11.07,22.18,11.07a23.56,23.56,0,0,0,2.38-.12l131.81-13.3c9.55-1,19.12-7.74,24.21-16.35.53,10,5.86,20.52,13.83,25.86l114.59,76.76c4,2.67,6.72,3.54,8.59,3.54a4,4,0,0,0,2.73-.91,4.68,4.68,0,0,0,1.35-4,26.58,26.58,0,0,0,18.69,7.85,24.14,24.14,0,0,0,7.6-1.23l121.71-40.94c8.68-2.92,16.09-11,19.22-20a1.33,1.33,0,0,0,1.27.85h.18c1.19,0,2-1,3.26-9.72l66.34-480.39C879.71,313.66,879.05,310.08,876.76,309.26ZM573.8,251,706,216c11.07-2.94,28.13-.65,38,5.11l117.47,68.26a19.39,19.39,0,0,1,6.78,27.05l-53.67,86.78c-5.94,9.6-19.85,16.07-31,14.43l-185.2-27.16c-11.12-1.63-21.8-11.95-23.81-23L557.94,276A22.18,22.18,0,0,1,573.8,251ZM810.32,411.6a98,98,0,0,0-6.25,22.65,27.93,27.93,0,0,0-12.92-14.2A38.94,38.94,0,0,0,810.32,411.6Zm-235.84-9.31a9.09,9.09,0,0,0-9.83-7.78,31.89,31.89,0,0,0,10-19.19,34.76,34.76,0,0,0,15.92,15.31A24,24,0,0,0,574.48,402.29ZM527.94,646.5a52.14,52.14,0,0,0-5.57-23.21,9.44,9.44,0,0,0,3.91.91,7.6,7.6,0,0,0,2-.26,8.47,8.47,0,0,0,4.49-3.08,86,86,0,0,0,3.14,24.44,5.74,5.74,0,0,0-4-1.19A6,6,0,0,0,527.94,646.5Zm-.3-25c-2.82.75-6.34-1-9.64-4.89L409.5,489.54c-3.41-4-4.77-8.62-3.82-13s4.09-8,8.86-10.28l143.83-67.5c4.68-2.19,8.64-2.34,11.15-.39s3.37,5.82,2.41,10.9L533.58,612.49C532.64,617.48,530.48,620.77,527.64,621.52Zm-124.19-138a100.12,100.12,0,0,0-18.61-12.72c1.65.12,3.33.19,5,.19a69.84,69.84,0,0,0,16.9-2,15.74,15.74,0,0,0-3.32,14.57ZM203.32,390.79l4.16-93.52c.5-11.28,9.41-23.95,19.86-28.24L359.1,214.92c6.45-2.65,15.47-4.06,24-4.06a57.71,57.71,0,0,1,15.3,1.84l133.64,37.93c10.87,3.08,21.36,14.64,23.39,25.77l16.6,91.45c2,11-4.63,23.87-14.77,28.63L413.47,464c-10.38,4.87-27.71,6-38.62,2.48L221.78,417.31C211.1,413.89,202.83,402,203.32,390.79ZM315.8,777.68c-.57-1-1.3-2.31-2.22-4.11l-39.44-77.4c-5.28-10.34-10.69-28.14-12.08-39.67l-8.42-70c-.32-2.7-.44-4.5-.46-5.7.47,1.1,1.11,2.79,1.93,5.38l59.39,187C315.11,775.11,315.52,776.57,315.8,777.68ZM475,776.43,343.18,789.72c-11.13,1.1-22.91-6.63-26.3-17.29L208.76,431.91c-1.56-4.93-1.18-8.89,1.09-11.15a7.76,7.76,0,0,1,5.68-2,18,18,0,0,1,5.48,1l153.08,49.15c11,3.53,26,13.54,33.51,22.31l108.5,127.1c7.39,8.66,11.21,24.7,8.51,35.76L500.12,754.56C497.45,765.49,486.18,775.29,475,776.43Zm162.56,89.49c-.81.71-3.48.4-8.28-2.81l-114.6-76.77c-9.35-6.26-14.79-20.26-12.12-31.19L527,654.61c1.17-4.8,3.1-7.8,5.16-8s4.56,2.33,6.69,6.79L636,857.31C638.46,862.53,638.38,865.21,637.55,865.92Zm150.19-38.84L666,868a23.36,23.36,0,0,1-27.8-11.79L541.15,652.31c-4.95-10.39-7.24-28-5.11-39.36l38.35-203.23a21.16,21.16,0,0,1,20.64-17,19.63,19.63,0,0,1,3,.22l185.21,27.16c11,1.62,20.08,12,20.19,23.14l3.48,357C807,811.44,798.39,823.5,787.74,827.08Zm88.59-507.24L810,800.23c-.2,1.4-.38,2.55-.54,3.51,0-1-.08-2.14-.09-3.56l-3.48-357c-.11-11.53,4.74-28.9,10.8-38.72l53.67-86.77c3.19-5.15,5-6.08,5.49-6.08h.08C876.23,311.73,877.22,313.45,876.33,319.84Z"/></svg>