<svg id="Capa_1" data-name="Capa 1" xmlns="http://www.w3.org/2000/svg" viewBox="0 0 1080 1080"><defs><style>.cls-1{fill:#dedad5;}</style></defs><path class="cls-1" d="M375.16,597c0-3.49,4.65-3.32,5-12.3l3-90.13c.33-8.49-3.82-7-3.82-10.64,0-1,.83-1.67,2.16-1.67h9.64c6,.17,8.15,2,10.31,6.82l34.92,80s32.93-75.5,34.76-80.16c1.83-4.16,4.65-6.48,10.64-6.65h8.81c1.33,0,2.33.67,2.33,1.67,0,3.65-4.32,2.32-3.82,10.64l5,90.62c.49,8.65,5,8.32,5,11.81,0,1.17-.83,1.66-2.16,1.66h-17c-1.16,0-2.16-.49-2.16-1.66,0-3.49,4.49-3.16,3.82-11.81l-5.65-87.46s-32.43,74.83-35.25,80.15c-2,3.66-3.33,6.15-7.15,6.15-4,0-5.66-3.15-7.49-6.65-1.5-3-27.93-62.69-35.42-79.82l-3,87.14c-.33,9,4.66,8.81,4.66,12.3,0,1.17-1,1.66-2.5,1.66H377.65C376,598.68,375.16,598.19,375.16,597Z"/><path class="cls-1" d="M550.41,597c0-3.49,3.66-3.16,3.66-11.81V556.28l-35.59-60.19c-3.49-6.16-8.65-8.65-8.65-12.14,0-1.17.84-1.67,2.17-1.67h18.79c1.16,0,2.16.5,2.16,1.67,0,3.49-4.32,4.32-.17,11.8l30.27,54.71L591,496.58c4.82-9.31-.5-8.47-.5-12.47,0-1.16,1-1.83,2.49-1.83h12.3c1.67,0,2.5.5,2.5,1.67,0,3.49-3.82,4-8.31,12.3L567,556.62v28.59c0,8.65,3.66,8.32,3.66,11.81,0,1.17-1,1.66-2.16,1.66h-16C551.24,598.68,550.41,598.19,550.41,597Z"/><path class="cls-1" d="M607.77,541.32c0-33.76,21.62-60.37,54.38-60.37,14.13,0,19,4.33,24.78,4.33,5.65,0,6.15-3,8.81-3,2.49,0,3,1.67,3.49,5,1,7.15,2,13.8,2.66,17.46.33,2.49-.5,4.66-3,4.66-8.82,0-8.15-21.28-35.59-21.28-25.28,0-42.4,20.28-42.4,46.06,0,32.42,18.62,54.2,47.06,54.2,25.27,0,31.1-20.61,36.42-17.79C708.71,572.74,697.57,600,664,600,632.22,600,607.77,576.57,607.77,541.32Z"/><path class="cls-1" d="M543.93,752.1a78.35,78.35,0,0,1-23.27-3.16L271.72,669c-17.89-5.75-31.76-25.69-30.93-44.46l6.9-155.1c.82-18.41,15.35-39.08,32.39-46.08l215-88.3c16.25-6.68,43.23-8.19,60.13-3.4l218.27,61.95c18,5.1,34.69,23.51,38,41.9l27.54,151.73c3.36,18.5-7.76,40.06-24.78,48l-234,109.81C570.59,749.67,556.94,752.1,543.93,752.1ZM531.84,339.44c-11.7,0-24.1,1.9-32.7,5.43l-215,88.3c-13.36,5.49-25.19,22.32-25.84,36.75L251.37,625c-.62,14.08,10.18,29.6,23.59,33.91L523.9,738.85c14.41,4.63,38.19,3.11,51.9-3.33l234-109.81c12.73-6,21.37-22.73,18.86-36.57L801.11,437.41c-2.59-14.26-16.55-29.64-30.49-33.6L552.35,341.86A78,78,0,0,0,531.84,339.44Z"/></svg>