<svg width="1011" height="989" viewBox="0 0 1011 989" fill="none" xmlns="http://www.w3.org/2000/svg">
<path d="M1007.4 150.264C1005.84 149.693 1004.12 150.131 1002.22 151.559C1003.46 144.923 1002.6 138.067 999.78 131.936C996.955 125.804 992.298 120.699 986.45 117.324L811.366 15.6421C795.876 6.64824 769.183 3.05469 751.866 7.67117L554.919 59.8474C541.025 63.5273 530.771 75.6497 528.492 89.4061C521.847 75.5965 508.497 63.2284 494.729 59.3226L295.569 2.8222C278.432 -2.00684 251.008 -0.499006 234.495 6.27626L38.1395 86.8754C21.3541 93.7636 7.04065 114.109 6.24324 132.236L0.0367489 271.548C-0.627757 286.048 7.78489 301.266 19.9719 309.709C16.5527 309.916 13.3176 311.328 10.8416 313.694C6.42265 318.105 5.52557 325.338 8.28992 334.08L76.3686 548.344C74.6209 548.862 73.5046 550.782 75.0396 563.668L87.5855 667.954C89.692 685.497 97.9318 712.571 105.959 728.307L164.741 843.606C169.898 853.709 171.925 855.782 173.493 855.782C173.828 855.773 174.158 855.696 174.463 855.556C175.227 855.244 175.825 854.792 175.945 853.391C183.839 863.314 196.452 869.857 209.004 869.857C210.189 869.857 211.374 869.798 212.553 869.678L408.981 849.87C423.168 848.442 437.435 838.399 445.03 825.619C445.861 840.504 453.828 856.101 465.67 864.032L636.448 978.381C642.382 982.366 646.455 983.695 649.24 983.695C650.713 983.768 652.161 983.295 653.306 982.366C654.496 981.337 655.486 979.537 655.333 976.388C662.712 983.793 672.72 987.981 683.176 988.039C687.015 988.045 690.831 987.428 694.472 986.212L875.883 925.228C888.814 920.884 899.865 908.835 904.53 895.411C904.677 895.789 904.937 896.114 905.274 896.34C905.612 896.567 906.01 896.685 906.417 896.679H906.683C908.463 896.679 909.739 895.238 911.54 882.199L1010.43 166.531C1011.77 156.807 1010.77 151.486 1007.4 150.264ZM555.876 63.4476L752.809 11.278C769.316 6.90065 794.733 10.3149 809.485 18.8902L984.556 120.572C987.915 122.51 990.85 125.103 993.186 128.198C995.521 131.293 997.21 134.826 998.152 138.586C999.094 142.347 999.269 146.258 998.667 150.088C998.066 153.918 996.7 157.588 994.65 160.879L914.67 290.14C905.825 304.441 885.086 314.093 868.454 311.642L592.457 271.163C575.885 268.738 559.97 253.354 556.979 236.881L532.273 100.638C529.283 84.3446 539.882 67.6854 555.876 63.4476ZM908.331 302.767C903.893 313.578 900.77 324.883 899.027 336.438C895.306 327.336 888.478 319.848 879.757 315.302C890.246 313.805 900.127 309.471 908.331 302.767ZM556.913 288.818C556.142 285.092 554.421 282.103 551.783 280.057C549.043 278.027 545.67 277.038 542.267 277.267C550.405 269.795 555.686 259.725 557.205 248.784C562.428 258.714 570.731 266.682 580.868 271.495C575.87 272.502 571.146 274.568 567.014 277.554C562.882 280.54 559.437 284.377 556.913 288.805V288.818ZM487.087 615.433C482.88 616.535 477.631 613.898 472.713 608.126L311.026 418.817C305.942 412.839 303.916 405.971 305.331 399.428C306.746 392.885 311.431 387.471 318.528 384.15L532.884 283.564C539.849 280.303 545.756 280.09 549.497 282.993C553.238 285.896 554.514 291.628 553.092 299.22L495.945 601.968C494.536 609.401 491.313 614.31 487.087 615.433ZM494.729 614.463C494.529 626.747 496.095 638.997 499.38 650.837C497.697 649.54 495.592 648.913 493.473 649.076C491.266 649.302 489.266 650.518 487.532 652.617C487.464 640.619 484.626 628.798 479.239 618.076C481.051 618.927 483.025 619.38 485.027 619.405C486.039 619.408 487.047 619.276 488.024 619.013C490.698 618.274 493.054 616.675 494.729 614.463ZM302.008 409.823C293.515 402.493 284.222 396.142 274.305 390.892C276.751 391.078 279.242 391.178 281.774 391.178C290.261 391.194 298.719 390.175 306.959 388.142C304.4 391.063 302.609 394.573 301.744 398.358C300.88 402.142 300.971 406.082 302.008 409.823ZM3.76463 271.714L9.97112 132.403C10.7087 115.564 23.9856 96.7194 39.5549 90.3228L235.903 9.73032C245.525 5.77808 258.975 3.67908 271.787 3.67908C280.08 3.67908 288.094 4.56916 294.586 6.40911L493.732 62.9162C509.939 67.5127 525.575 84.7299 528.585 101.303L553.325 237.545C556.308 253.965 546.434 273.102 531.316 280.19L316.973 380.756C301.51 388.009 275.687 389.663 259.427 384.449L31.2353 311.223C15.3536 306.122 3.02038 288.393 3.76463 271.714ZM171.386 848.05C170.529 846.589 169.446 844.603 168.064 841.932L109.295 726.667C101.434 711.256 93.3467 684.74 91.3001 667.549L78.7542 563.263C78.2757 559.278 78.0897 556.561 78.0897 554.774C78.794 556.415 79.7443 558.932 80.967 562.791L169.453 841.368C170.35 844.237 170.968 846.403 171.386 848.05ZM408.615 846.184L212.187 865.991C195.574 867.619 178.031 856.114 172.981 840.239L11.865 332.964C9.53255 325.624 10.1173 319.725 13.4996 316.358C15.4932 314.365 18.3971 313.349 21.9522 313.349C24.7317 313.402 27.4863 313.884 30.119 314.777L258.244 387.996C274.624 393.257 297.031 408.169 308.195 421.208L469.883 610.517C480.893 623.417 486.588 647.31 482.575 663.789L446.067 813.563C442.1 829.89 425.288 844.496 408.622 846.184H408.615ZM650.874 979.497C649.658 980.553 645.684 980.095 638.528 975.312L467.75 860.956C453.795 851.624 445.708 830.773 449.675 814.459L486.176 664.686C487.924 657.532 490.828 653.075 493.871 652.73C496.915 652.384 500.663 656.197 503.839 662.846L648.562 966.677C652.23 974.429 652.11 978.414 650.881 979.497H650.874ZM874.7 921.648L693.29 982.625C677.574 987.939 658.995 980.042 651.864 965.076L507.208 661.299C499.839 645.815 496.423 619.511 499.606 602.659L556.754 299.911C559.538 285.165 572.841 274.53 587.507 274.53C588.984 274.53 590.458 274.639 591.919 274.856L867.915 315.315C884.349 317.719 897.851 333.19 898.011 349.796L903.194 881.614C903.353 898.346 890.575 916.308 874.706 921.648H874.7ZM1006.73 166.046L907.859 881.641C907.566 883.727 907.301 885.447 907.055 886.868C906.988 885.427 906.942 883.687 906.922 881.555L901.739 349.756C901.579 332.572 908.796 306.7 917.84 292.08L997.82 162.812C1002.57 155.14 1005.3 153.758 1006 153.758H1006.11C1006.58 153.937 1008.06 156.508 1006.73 166.046Z" fill="none" stroke="#333233" stroke-opacity="0.1" stroke-width="1"/>
</svg>
