<svg width="454" height="800" viewBox="0 0 454 800" fill="none" xmlns="http://www.w3.org/2000/svg">
<path d="M1.05102 375.69C-1.80671 390.855 1.37658 415.501 8.01447 429.381L176.476 783.374C179.691 789.767 185.071 794.81 191.656 797.603C198.241 800.397 205.604 800.761 212.432 798.629L428.498 725.92C442.263 721.305 453.82 705.109 453.621 690.596L447.671 77.8126C447.526 63.5892 435.516 49.8182 421.445 47.7552L98.0872 0.271439C96.8291 0.0910452 95.5598 0.000336839 94.2889 0C88.0216 0.0238358 81.9557 2.21793 77.1221 6.20949C72.2885 10.201 68.9852 15.7439 67.7736 21.8961L1.05102 375.69Z" fill="#B0AA9F"/>
</svg>
