<svg width="575" height="671" viewBox="0 0 575 671" fill="none" xmlns="http://www.w3.org/2000/svg">
<path d="M355.564 127.199C344.711 114.495 322.084 99.4271 306.228 94.3082L16.4553 1.33437C14.0581 0.523066 11.5512 0.0815054 9.02087 0.0248839C7.79346 -0.064876 6.5604 0.0887414 5.39257 0.476907C4.22474 0.865072 3.14516 1.48013 2.2159 2.28673C-0.352985 4.93973 -0.727259 10.0927 1.29722 16.453L201.142 645.689C205.804 660.382 222.816 671.521 238.059 669.94L489.725 644.566C505.325 642.985 521.657 628.801 525.366 613.564L572.813 418.875C576.641 403.161 570.993 379.522 560.496 367.226L355.564 127.199Z" fill="#B0AA9F"/>
</svg>
