<svg width="273" height="23" viewBox="0 0 273 23" fill="none" xmlns="http://www.w3.org/2000/svg">
<path d="M22.8232 19.9569L21.8506 2.60922C21.7692 1.0197 22.6004 1.28533 22.6004 0.574114C22.6004 0.381315 22.4076 0.252782 22.172 0.252782H20.4582C19.31 0.287057 18.7701 0.732639 18.4188 1.53811C18.0675 2.42928 11.7479 16.8807 11.7479 16.8807L5.04278 1.55953C4.61434 0.638381 4.2116 0.274204 3.06337 0.252782H1.2125C0.959714 0.252782 0.784052 0.381315 0.784052 0.574114C0.784052 1.27248 1.58524 1.00256 1.52097 2.60922L0.959714 19.8626C0.895447 21.5807 0 21.5507 0 22.2191C0 22.4419 0.158524 22.5361 0.479857 22.5361H2.81059C3.09765 22.5361 3.28616 22.4419 3.28616 22.2191C3.28616 21.5507 2.33073 21.5807 2.395 19.8626L2.96911 3.18334C4.4044 6.46093 9.48146 17.8875 9.76851 18.4616C10.1198 19.13 10.4369 19.747 11.2038 19.747C11.9707 19.747 12.1935 19.2714 12.5748 18.5687C13.1189 17.5405 19.3442 3.21333 19.3442 3.21333L20.4282 19.9569C20.5653 21.615 19.7084 21.5507 19.7084 22.2191C19.7084 22.4419 19.8969 22.5361 20.1369 22.5361H23.393C23.6501 22.5361 23.8215 22.4419 23.8215 22.2191C23.7786 21.5507 22.9174 21.615 22.8232 19.9569Z" fill="#343234"/>
<path d="M30.9808 0.574114C30.9808 0.381315 30.8222 0.252782 30.5523 0.252782H27.5018C27.279 0.252782 27.0734 0.381315 27.0734 0.574114C27.0734 1.27248 27.776 1.17822 27.776 2.83201V19.9698C27.776 21.6578 27.0734 21.5636 27.0734 22.2319C27.0734 22.4547 27.2662 22.549 27.5018 22.549H30.5652C30.8222 22.549 30.9936 22.4547 30.9936 22.2319C30.9936 21.5636 30.291 21.6578 30.291 19.9698V2.83201C30.2781 1.17822 30.9808 1.28533 30.9808 0.574114Z" fill="#343234"/>
<path d="M52.6343 22.5361C52.7723 22.5471 52.911 22.5269 53.0402 22.4771C53.1694 22.4273 53.2857 22.3492 53.3807 22.2484C53.4757 22.1477 53.5468 22.027 53.5889 21.8951C53.631 21.7632 53.643 21.6236 53.624 21.4864V2.83201C53.624 1.17822 54.3567 1.27248 54.3567 0.574114C54.3567 0.381315 54.1639 0.252782 53.9282 0.252782H51.9145C51.6617 0.252782 51.4861 0.381315 51.4861 0.574114C51.4861 1.27248 52.1887 1.17822 52.1887 2.83201V19.4171L39.6096 1.55953C38.9884 0.638381 38.7827 0.252782 37.7288 0.252782H35.6508C35.428 0.252782 35.2224 0.381315 35.2224 0.574114C35.2395 1.28533 35.9893 1.17822 35.9893 2.83201V19.9698C35.9893 21.6578 35.2566 21.5636 35.2566 22.2319C35.2566 22.4547 35.4451 22.549 35.6851 22.549H37.703C37.9258 22.549 38.1315 22.4547 38.1315 22.2319C38.1315 21.5636 37.3989 21.6578 37.3989 19.9698V3.18334C39.2497 5.72829 50.1322 20.7838 50.7406 21.675C51.169 22.2834 51.4432 22.5319 52.1759 22.5319L52.6343 22.5361Z" fill="#343234"/>
<path d="M76.987 11.3966C76.987 3.91598 71.6272 0.257069 64.7978 0.257069H58.2683C58.0113 0.257069 57.8399 0.385603 57.8399 0.578402C57.8399 1.27677 58.5425 1.18251 58.5425 2.8363V19.974C58.5425 21.6621 57.8399 21.5679 57.8399 22.2362C57.8399 22.459 57.9984 22.5533 58.2683 22.5533H64.7807C71.6272 22.5361 76.987 18.9072 76.987 11.3966ZM61.0618 19.7341V3.08908C61.0618 2.23219 61.4131 1.68807 62.2743 1.68807H64.9863C70.8603 1.68807 74.245 5.28271 74.245 11.3966C74.245 17.5105 70.8603 21.1051 64.9863 21.1051H62.2743C61.4131 21.1051 61.0618 20.5953 61.0618 19.7341Z" fill="#343234"/>
<path d="M100.749 14.4814L106.974 2.91342C107.831 1.32389 108.572 1.22963 108.572 0.561261C108.572 0.338471 108.409 0.239929 108.092 0.239929H105.731C105.444 0.239929 105.251 0.368462 105.251 0.591252C105.251 1.35388 106.271 1.19536 105.346 2.97768L99.9859 13.3032L94.1762 2.83201C93.375 1.40101 94.2062 1.24249 94.2062 0.574115C94.2062 0.351324 94.0134 0.252782 93.7777 0.252782H90.1874C89.9303 0.252782 89.7589 0.351324 89.7589 0.574115C89.7589 1.24249 90.7486 1.71806 91.417 2.89628L98.2464 14.4214V19.9569C98.2464 21.615 97.5438 21.5507 97.5438 22.2191C97.5438 22.4419 97.7066 22.5361 97.9722 22.5361H101.036C101.263 22.5361 101.464 22.4419 101.464 22.2191C101.464 21.5507 100.761 21.615 100.761 19.9569L100.749 14.4814Z" fill="#343234"/>
<path d="M118.85 0C112.916 0 107.711 4.58435 107.711 11.3966C107.711 18.2089 112.916 22.7932 118.85 22.7932C124.784 22.7932 129.96 18.1746 129.96 11.3966C129.96 4.61862 124.789 0 118.85 0ZM118.85 21.3579C113.807 21.3579 110.427 17.5019 110.427 11.3966C110.427 5.29128 113.807 1.431 118.85 1.431C123.893 1.431 127.278 5.25272 127.278 11.3966C127.278 17.5405 123.863 21.3579 118.85 21.3579Z" fill="#343234"/>
<path d="M150.452 0.252782H148.443C148.186 0.252782 148.014 0.351324 148.014 0.574114C148.014 1.24249 148.747 1.17822 148.747 2.83201V14.4C148.747 18.1232 146.896 21.118 142.843 21.118C139.013 21.118 136.202 18.9201 136.202 14.4V2.83201C136.202 1.17822 136.935 1.24249 136.935 0.574114C136.935 0.351324 136.746 0.252782 136.506 0.252782H133.409C133.186 0.252782 132.98 0.351324 132.98 0.574114C132.98 1.24249 133.713 1.17822 133.713 2.83201V14.4C133.713 18.9201 136.652 22.8061 142.205 22.8061C148.203 22.8061 150.152 18.5687 150.152 14.4V2.83201C150.152 1.17822 150.855 1.24249 150.855 0.574114C150.868 0.351324 150.709 0.252782 150.452 0.252782Z" fill="#343234"/>
<path d="M168.97 22.7932C170.726 22.7932 171.266 20.9123 170.756 20.3082C170.088 19.5456 169.064 21.7735 168.524 16.298C168.203 13.1789 167.312 11.7479 163.927 11.2681C165.173 11.1387 166.326 10.5477 167.158 9.61136C167.991 8.67498 168.443 7.46098 168.425 6.20815C168.425 2.38643 165.139 0.252782 160.735 0.252782H154.094C153.841 0.252782 153.666 0.351324 153.666 0.574114C153.666 1.24249 154.364 1.17822 154.364 2.83201V19.9698C154.364 21.6278 153.666 21.5636 153.666 22.2319C153.666 22.4547 153.824 22.549 154.094 22.549H157.162C157.414 22.549 157.59 22.4547 157.59 22.2319C157.59 21.5636 156.892 21.6278 156.892 19.9698V12.095H159.381C163.37 12.095 165.636 12.4463 165.988 16.9664C166.258 20.9937 167.024 22.7932 168.97 22.7932ZM158.096 10.664C157.239 10.664 156.883 10.1541 156.883 9.26295V3.08908C156.883 2.19792 157.235 1.68807 158.096 1.68807H160.585C163.807 1.68807 165.881 3.21333 165.881 6.20815C165.881 9.10443 164.252 10.664 160.585 10.664H158.096Z" fill="#343234"/>
<path d="M200.126 17.1377C199.106 16.5979 197.984 20.5653 193.138 20.5653C187.68 20.5653 184.102 16.3965 184.102 10.1884C184.102 5.257 187.393 1.37102 192.243 1.37102C197.508 1.37102 197.384 5.44552 199.072 5.44552C199.552 5.44552 199.71 5.01707 199.646 4.55436C199.522 3.85599 199.329 2.58351 199.136 1.2125C199.042 0.578399 198.944 0.257066 198.468 0.257066C197.992 0.257066 197.86 0.831181 196.754 0.831181C195.649 0.831181 194.732 0 192.02 0C185.73 0 181.583 5.09419 181.583 11.568C181.583 18.316 186.274 22.8061 192.371 22.8061C198.819 22.7932 200.94 17.5662 200.126 17.1377Z" fill="#343234"/>
<path d="M218.416 17.8233C217.362 17.8233 216.822 21.1051 214.333 21.1051H207.885C207.028 21.1051 206.673 20.5953 206.673 19.7341V11.9964H211.651C213.819 11.9964 213.661 13.556 214.333 13.556C214.65 13.556 214.762 13.2389 214.762 12.9176V9.67426C214.762 9.32722 214.663 9.04016 214.333 9.04016C213.661 9.04016 213.819 10.5697 211.651 10.5697H206.673V3.08908C206.673 2.23219 207.024 1.68807 207.885 1.68807H213.853C216.373 1.68807 216.724 4.99565 217.778 4.99565C218.258 4.99565 218.352 4.56721 218.288 4.13877C218.228 3.43612 218.099 2.48069 217.936 1.08396C217.876 0.445581 217.508 0.252782 216.917 0.252782H203.896C203.639 0.252782 203.468 0.381315 203.468 0.574114C203.468 1.27248 204.171 1.17822 204.171 2.83201V19.9698C204.171 21.6578 203.468 21.5636 203.468 22.2319C203.468 22.4547 203.626 22.549 203.896 22.549H217.362C217.971 22.549 218.288 22.3605 218.386 21.7521C218.639 20.4668 218.815 19.3357 218.96 18.6973C219.025 18.2089 218.935 17.8233 218.416 17.8233Z" fill="#343234"/>
<path d="M221.934 22.2191C221.934 22.4419 222.092 22.5361 222.362 22.5361H235.515C235.633 22.5504 235.752 22.5409 235.865 22.5083C235.979 22.4757 236.085 22.4206 236.177 22.3462C236.269 22.2719 236.345 22.1799 236.4 22.0756C236.456 21.9713 236.49 21.857 236.501 21.7392C236.724 20.4539 236.929 19.3228 237.045 18.6844C237.139 18.2089 237.011 17.8275 236.535 17.8275C235.481 17.8275 234.907 21.1094 232.448 21.1094H226.321C225.464 21.1094 225.104 20.5996 225.104 19.7384V2.83201C225.104 1.17822 225.79 1.28533 225.79 0.574114C225.79 0.381315 225.631 0.252782 225.361 0.252782H222.294C222.041 0.252782 221.865 0.381315 221.865 0.574114C221.865 1.27248 222.564 1.17822 222.564 2.83201V19.9698C222.615 21.645 221.934 21.5507 221.934 22.2191Z" fill="#343234"/>
<path d="M254.457 17.8233C253.407 17.8233 252.829 21.1051 250.374 21.1051H244.243C243.386 21.1051 243.03 20.5953 243.03 19.7341V2.83201C243.03 1.17822 243.733 1.27248 243.733 0.574114C243.733 0.381315 243.574 0.252782 243.305 0.252782H240.241C239.988 0.252782 239.813 0.381315 239.813 0.574114C239.813 1.27248 240.515 1.17822 240.515 2.83201V19.9698C240.515 21.6578 239.813 21.5636 239.813 22.2319C239.813 22.4547 239.976 22.549 240.241 22.549H253.394C253.514 22.5683 253.637 22.5626 253.755 22.5324C253.872 22.5021 253.982 22.4478 254.078 22.373C254.174 22.2982 254.253 22.2045 254.311 22.0976C254.369 21.9908 254.404 21.8731 254.414 21.7521C254.637 20.4668 254.843 19.3357 254.958 18.6973C255.065 18.2089 254.924 17.8233 254.457 17.8233Z" fill="#343234"/>
<path d="M260.635 5.21844C260.635 3.07623 262.55 1.46528 265.425 1.46528C267.692 1.46528 269.32 2.35644 270.404 5.05992C270.755 5.85682 271.012 5.98536 271.393 5.98536C271.775 5.98536 271.967 5.63403 271.967 3.8817C271.967 1.52954 269.491 0 265.584 0C261.214 0 258.497 2.54496 258.497 6.14388C258.497 14.3871 270.562 10.3769 270.562 17.2834C270.562 19.6099 268.42 21.4222 265.519 21.4222C262.619 21.4222 260.494 20.0554 259.208 16.2337C258.857 15.184 258.699 15.0255 258.219 15.0255C257.615 15.0255 257.452 15.5011 257.452 17.9518C257.452 21.1051 261.955 22.7932 265.369 22.7932C270.125 22.7932 273 19.8327 273 16.1395C272.991 7.86194 260.635 11.1095 260.635 5.21844Z" fill="#343234"/>
</svg>
