<svg width="131" height="202" viewBox="0 0 131 202" fill="none" xmlns="http://www.w3.org/2000/svg">
<path d="M35.0251 83.783C34.8687 87.9381 32.7051 87.8624 32.7051 89.479C32.7051 90.0178 33.094 90.245 33.8673 90.245H39.5043C40.2016 90.245 40.6621 90.0178 40.6621 89.479C40.6621 87.8624 38.3465 87.9381 38.503 83.783L39.8932 43.4614C43.3666 51.3841 55.6463 79.0133 56.3436 80.3984C57.193 82.015 57.9663 83.4757 59.8215 83.4757C61.6096 83.4757 62.213 82.3223 63.1429 80.6299C64.4526 78.1672 79.5173 43.5371 79.5173 43.5371L82.1413 84.0146C82.4542 88.0227 80.3532 87.8624 80.3532 89.479C80.3532 90.0178 80.8003 90.245 81.359 90.245H89.2356C89.8525 90.245 90.2414 90.0178 90.2414 89.479C90.2414 87.8624 88.1538 88.0138 87.9258 84.0146L85.6057 42.0763C85.3733 38.2241 87.3938 38.8431 87.3938 37.1508C87.3938 36.7055 86.9468 36.3804 86.3165 36.3804H82.2218C79.4413 36.4561 78.1271 37.5338 77.2777 39.4577C76.4284 41.6132 61.1357 76.5506 61.1357 76.5506L44.9133 39.5334C43.9075 37.3067 42.9017 36.4561 40.1212 36.3804H35.651C35.0341 36.3804 34.6496 36.6877 34.6496 37.1508C34.6496 38.8431 36.5763 38.1484 36.4377 42.0763L35.0251 83.783Z" fill="#DEDBD5"/>
<path d="M104.12 86.3347C103.427 86.3347 102.962 86.642 102.962 87.1809C102.962 89.0291 105.434 88.6416 103.195 92.9704L90.2313 117.91L76.1724 92.5918C74.2412 89.127 76.2484 88.7396 76.2484 87.1274C76.2484 86.5886 75.8014 86.357 75.2471 86.357H66.5033C65.8864 86.357 65.502 86.5886 65.502 87.1274C65.502 88.7396 67.8935 89.8975 69.5252 92.7432L86.065 120.6V133.991C86.065 137.999 84.3663 137.839 84.3663 139.456C84.3663 139.994 84.7508 140.222 85.3676 140.222H92.7838C93.3246 140.222 93.7896 139.994 93.7896 139.456C93.7896 137.839 92.0909 137.99 92.0909 133.991V120.733L107.151 92.7967C109.239 88.9489 111.013 88.7173 111.013 87.1052C111.013 86.5663 110.629 86.3347 109.856 86.3347H104.12Z" fill="#DEDBD5"/>
<path d="M80.6252 159.83C79.4674 159.576 78.466 161.652 76.602 163.754C74.5806 165.99 72.1023 167.77 69.3334 168.973C67.8051 169.648 66.205 170.149 64.5636 170.465C62.3663 170.905 60.1156 171.017 57.8851 170.799C53.4995 170.314 49.3567 168.544 45.9809 165.713L45.5875 165.37C39.3784 159.91 36.5085 150.972 38.0239 140.248C39.8567 127.307 49.9281 118.333 62.6683 120.123C76.4991 122.065 74.6485 132.709 79.0919 133.332C80.348 133.506 80.9202 132.477 80.9291 131.203C80.8531 129.32 80.8263 125.908 80.8308 122.248C80.8308 120.542 80.6788 119.673 79.4227 119.495C78.0816 119.308 77.6346 120.778 74.7692 120.386C71.8367 119.972 69.7133 117.46 62.5878 116.458C46.0792 114.142 33.2944 125.966 30.8939 142.921C30.1421 148.247 30.7131 153.675 32.5568 158.73C33.6541 161.862 35.3361 164.759 37.5143 167.268C38.8091 168.723 40.2602 170.033 41.8415 171.173C45.7444 173.967 50.2841 175.748 55.051 176.357C58.4041 176.784 61.8072 176.603 65.0956 175.823C69.6699 174.496 73.8743 172.134 77.3798 168.92C78.6122 167.7 79.6657 166.313 80.5089 164.8C82.1719 161.83 81.6667 160.815 81.5103 160.547C81.4183 160.375 81.2926 160.223 81.1406 160.1C80.9886 159.976 80.8133 159.885 80.6252 159.83Z" fill="#DEDBD5"/>
<path d="M65.5022 0C29.3828 0 0 29.2726 0 65.2521V136.743C0 172.727 29.3828 202 65.5022 202C101.622 202 131 172.727 131 136.743V65.2521C131 29.2726 101.617 0 65.5022 0ZM129.212 136.743C129.212 171.743 100.629 200.219 65.5022 200.219C30.3752 200.219 1.78809 171.743 1.78809 136.743V65.2521C1.78809 30.2568 30.3707 1.78138 65.5022 1.78138C100.634 1.78138 129.212 30.2568 129.212 65.2521V136.743Z" fill="#DEDBD5"/>
</svg>
